<svg width="190" height="50" viewBox="0 0 190 50" fill="none" xmlns="http://www.w3.org/2000/svg">
<path d="M58.9254 36V6.6H63.9654V32.64H74.2554V36H58.9254ZM77.6285 36V6.6H92.9585V9.96H82.6685V18.99H91.6985V22.35H82.6685V32.64H92.9585V36H77.6285ZM95.2521 36L102.812 6.6H109.112L116.672 36H111.422L109.574 28.65H102.35L100.502 36H95.2521ZM103.022 25.29H108.86L106.046 13.32H105.878L103.022 25.29ZM120.244 36V7.02C121.308 6.712 122.4 6.502 123.52 6.39C124.668 6.25 126.026 6.18 127.594 6.18C129.918 6.18 131.794 6.53 133.222 7.23C134.678 7.902 135.742 8.98 136.414 10.464C137.114 11.948 137.464 13.88 137.464 16.26C137.464 18.136 137.268 19.69 136.876 20.922C136.484 22.126 135.938 23.092 135.238 23.82C134.566 24.52 133.768 25.08 132.844 25.5L138.514 36H132.844L128.014 26.55H125.284V36H120.244ZM125.284 23.19H127.594C129.162 23.19 130.352 22.7 131.164 21.72C132.004 20.712 132.424 18.892 132.424 16.26C132.424 14.496 132.242 13.11 131.878 12.102C131.514 11.094 130.968 10.38 130.24 9.96C129.54 9.54 128.658 9.33 127.594 9.33H125.284V23.19ZM142.72 36V6.6H147.76L155.74 25.92H155.95V6.6H160.78V36H155.74L147.76 16.68H147.55V36H142.72ZM171.293 36V27.18L163.943 6.6H169.193L173.813 20.922L178.433 6.6H183.683L176.333 27.18V36H171.293Z" fill="#1C3144"/>
<path d="M60.9254 36V6.6H65.9654V32.64H76.2554V36H60.9254ZM79.6285 36V6.6H94.9585V9.96H84.6685V18.99H93.6985V22.35H84.6685V32.64H94.9585V36H79.6285ZM97.2521 36L104.812 6.6H111.112L118.672 36H113.422L111.574 28.65H104.35L102.502 36H97.2521ZM105.022 25.29H110.86L108.046 13.32H107.878L105.022 25.29ZM122.244 36V7.02C123.308 6.712 124.4 6.502 125.52 6.39C126.668 6.25 128.026 6.18 129.594 6.18C131.918 6.18 133.794 6.53 135.222 7.23C136.678 7.902 137.742 8.98 138.414 10.464C139.114 11.948 139.464 13.88 139.464 16.26C139.464 18.136 139.268 19.69 138.876 20.922C138.484 22.126 137.938 23.092 137.238 23.82C136.566 24.52 135.768 25.08 134.844 25.5L140.514 36H134.844L130.014 26.55H127.284V36H122.244ZM127.284 23.19H129.594C131.162 23.19 132.352 22.7 133.164 21.72C134.004 20.712 134.424 18.892 134.424 16.26C134.424 14.496 134.242 13.11 133.878 12.102C133.514 11.094 132.968 10.38 132.24 9.96C131.54 9.54 130.658 9.33 129.594 9.33H127.284V23.19ZM144.72 36V6.6H149.76L157.74 25.92H157.95V6.6H162.78V36H157.74L149.76 16.68H149.55V36H144.72Z" fill="#708AFF"/>
<path d="M173.293 36V27.18L165.943 6.6H171.193L175.813 20.922L180.433 6.6H185.683L178.333 27.18V36H173.293Z" fill="#EE8434"/>
<path fill-rule="evenodd" clip-rule="evenodd" d="M7.28255 35.6341H29.4492C33.849 35.6341 36.0489 35.6341 37.4157 34.1339C38.7826 32.6337 38.7826 30.2192 38.7826 25.3902V12.5853C38.7826 7.75631 38.7826 5.3418 37.4157 3.84162C36.0489 2.34143 33.849 2.34143 29.4492 2.34143H10.7826C6.38278 2.34143 4.18289 2.34143 2.81605 3.84162C1.44922 5.3418 1.44922 7.75631 1.44922 12.5853V42.0366C1.44922 38.5006 4.06089 35.6341 7.28255 35.6341ZM13.1159 13.1463C12.0113 13.1463 11.1159 14.0417 11.1159 15.1463C11.1159 16.2509 12.0113 17.1463 13.1159 17.1463L27.1159 17.1463C28.2205 17.1463 29.1159 16.2509 29.1159 15.1463C29.1159 14.0417 28.2205 13.1463 27.1159 13.1463L13.1159 13.1463Z" fill="#1C3144"/>
<path d="M37.4157 34.1339L36.6765 33.4604L36.6765 33.4604L37.4157 34.1339ZM37.4157 3.84162L36.6765 4.5151L36.6765 4.51511L37.4157 3.84162ZM13.1159 13.1463L13.1159 12.1463H13.1159V13.1463ZM13.1159 17.1463L13.1159 16.1463H13.1159V17.1463ZM27.1159 17.1463L27.1159 18.1463H27.1159V17.1463ZM29.1159 15.1463L30.1159 15.1463V15.1463H29.1159ZM27.1159 13.1463L27.1159 14.1463H27.1159V13.1463ZM29.4492 34.6341H7.28255V36.6341H29.4492V34.6341ZM36.6765 33.4604C36.2048 33.9782 35.5657 34.2888 34.4238 34.4573C33.2429 34.6316 31.68 34.6341 29.4492 34.6341V36.6341C31.6182 36.6341 33.3551 36.6367 34.7158 36.4359C36.1155 36.2293 37.2598 35.7899 38.1549 34.8074L36.6765 33.4604ZM37.7826 25.3902C37.7826 27.8305 37.7808 29.569 37.6191 30.8888C37.4599 32.1886 37.1603 32.9294 36.6765 33.4604L38.1549 34.8074C39.0379 33.8382 39.4218 32.6217 39.6043 31.132C39.7843 29.6622 39.7826 27.7789 39.7826 25.3902H37.7826ZM37.7826 12.5853V25.3902H39.7826V12.5853H37.7826ZM36.6765 4.51511C37.1603 5.04612 37.4599 5.78693 37.6191 7.08675C37.7808 8.40652 37.7826 10.145 37.7826 12.5853H39.7826C39.7826 10.1966 39.7843 8.31336 39.6043 6.84357C39.4218 5.35384 39.0379 4.13729 38.1549 3.16813L36.6765 4.51511ZM29.4492 3.34143C31.68 3.34143 33.2429 3.34398 34.4238 3.51824C35.5657 3.68674 36.2048 3.99738 36.6765 4.5151L38.1549 3.16813C37.2598 2.18567 36.1155 1.74621 34.7158 1.53967C33.3551 1.33888 31.6182 1.34143 29.4492 1.34143V3.34143ZM10.7826 3.34143H29.4492V1.34143H10.7826V3.34143ZM3.55525 4.51511C4.02696 3.99738 4.66605 3.68674 5.80793 3.51824C6.98886 3.34398 8.55172 3.34143 10.7826 3.34143V1.34143C8.61361 1.34143 6.87664 1.33888 5.51597 1.53967C4.11626 1.74621 2.97198 2.18567 2.07686 3.16813L3.55525 4.51511ZM2.44922 12.5853C2.44922 10.145 2.45099 8.40652 2.61265 7.08675C2.77188 5.78693 3.07143 5.04612 3.55525 4.51511L2.07686 3.16813C1.19384 4.13729 0.809979 5.35384 0.627492 6.84357C0.44745 8.31336 0.449219 10.1966 0.449219 12.5853H2.44922ZM2.44922 42.0366V12.5853H0.449219V42.0366H2.44922ZM7.28255 34.6341C3.42303 34.6341 0.449219 38.0379 0.449219 42.0366H2.44922C2.44922 38.9632 4.69875 36.6341 7.28255 36.6341V34.6341ZM12.1159 15.1463C12.1159 14.594 12.5636 14.1463 13.1159 14.1463V12.1463C11.459 12.1463 10.1159 13.4895 10.1159 15.1463H12.1159ZM13.1159 16.1463C12.5636 16.1463 12.1159 15.6986 12.1159 15.1463H10.1159C10.1159 16.8032 11.459 18.1463 13.1159 18.1463V16.1463ZM27.1159 16.1463L13.1159 16.1463L13.1159 18.1463L27.1159 18.1463L27.1159 16.1463ZM28.1159 15.1463C28.1159 15.6986 27.6682 16.1463 27.1159 16.1463V18.1463C28.7727 18.1463 30.1159 16.8032 30.1159 15.1463L28.1159 15.1463ZM27.1159 14.1463C27.6682 14.1463 28.1159 14.594 28.1159 15.1463H30.1159C30.1159 13.4895 28.7727 12.1463 27.1159 12.1463V14.1463ZM13.1159 14.1463L27.1159 14.1463L27.1159 12.1463L13.1159 12.1463L13.1159 14.1463Z" fill="#1C3144"/>
<path d="M38.7826 48.439H15.4492" stroke="#1C3144" stroke-width="2" stroke-linecap="round"/>
</svg>
